<svg height="512pt" viewBox="0 0 512 512" width="512pt" xmlns="http://www.w3.org/2000/svg" xmlns:xlink="http://www.w3.org/1999/xlink"><linearGradient id="a" gradientTransform="matrix(1 0 0 -1 0 -14446)" gradientUnits="userSpaceOnUse" x1="0" x2="512" y1="-14702" y2="-14702"><stop offset="0" stop-color="#00f1ff"/><stop offset=".231" stop-color="#00d8ff"/><stop offset=".5138" stop-color="#00c0ff"/><stop offset=".7773" stop-color="#00b2ff"/><stop offset="1" stop-color="#00adff"/></linearGradient><path d="m512 256c0 141.386719-114.613281 256-256 256s-256-114.613281-256-256 114.613281-256 256-256 256 114.613281 256 256zm0 0" fill="url(#a)"/><g fill="#fff"><path d="m423.5 259.871094c8.285156 0 15-6.71875 15-15v-114.269532c0-8.285156-6.714844-15-15-15h-152.5v-14.101562c0-8.28125-6.714844-15-15-15s-15 6.71875-15 15v14.101562h-152.5c-8.285156 0-15 6.714844-15 15v185.953126c0 31.75 25.832031 57.585937 57.585938 57.585937h109.914062v47.359375h-41.777344c-8.285156 0-15 6.71875-15 15 0 8.285156 6.714844 15 15 15h112.847656c8.285157 0 15-6.714844 15-15 0-8.28125-6.714843-15-15-15h-41.070312v-47.359375h109.914062c31.753907 0 57.585938-25.835937 57.585938-57.585937 0-8.285157-6.714844-15-15-15s-15 6.714843-15 15c0 15.210937-12.375 27.585937-27.585938 27.585937h-249.828124c-15.210938 0-27.585938-12.375-27.585938-27.585937v-170.953126h305v99.269532c0 8.28125 6.714844 15 15 15zm0 0"/><path d="m333.410156 173.800781c-.019531 0-.035156 0-.054687 0-3.996094 0-7.832031 1.59375-10.644531 4.433594l-80.867188 81.5-29.914062-30.359375c-2.792969-2.839844-6.601563-4.445312-10.585938-4.472656-.03125 0-.066406 0-.097656 0-3.949219 0-7.738282 1.558594-10.546875 4.332031l-54.546875 53.941406c-5.890625 5.824219-5.945313 15.320313-.121094 21.214844 2.9375 2.964844 6.800781 4.453125 10.667969 4.453125 3.8125 0 7.625-1.445312 10.546875-4.335938l43.863281-43.375 30.011719 30.460938c2.8125 2.855469 6.648437 4.464844 10.65625 4.472656h.019531c4.007813 0 7.839844-1.597656 10.65625-4.433594l80.828125-81.460937 21.296875 21.765625c5.792969 5.921875 15.289063 6.023438 21.210937.230469 5.925782-5.792969 6.027344-15.289063.234376-21.210938l-31.945313-32.648437c-2.808594-2.871094-6.652344-4.496094-10.667969-4.507813zm0 0"/></g></svg>