<svg viewBox="0 0 512 512" xmlns="http://www.w3.org/2000/svg" xmlns:xlink="http://www.w3.org/1999/xlink"><linearGradient id="a" gradientTransform="matrix(1 0 0 -1 0 -12310)" gradientUnits="userSpaceOnUse" x1="0" x2="512" y1="-12566" y2="-12566"><stop offset="0" stop-color="#00f1ff"/><stop offset=".231" stop-color="#00d8ff"/><stop offset=".5138" stop-color="#00c0ff"/><stop offset=".7773" stop-color="#00b2ff"/><stop offset="1" stop-color="#00adff"/></linearGradient><path d="m512 256c0 141.386719-114.613281 256-256 256s-256-114.613281-256-256 114.613281-256 256-256 256 114.613281 256 256zm0 0" fill="url(#a)"/><g fill="#fff"><path d="m155.152344 219.113281h-29.128906c2.300781-31.117187 15.523437-60.0625 37.8125-82.351562 24.617187-24.621094 57.347656-38.175781 92.164062-38.175781 54.308594 0 103.449219 34.207031 122.285156 85.117187 2.875 7.769531 11.503906 11.742187 19.273438 8.863281 7.769531-2.875 11.738281-11.5 8.863281-19.269531-11.253906-30.417969-31.242187-56.445313-57.808594-75.273437-27.175781-19.257813-59.199219-29.4375-92.613281-29.4375-42.828125 0-83.09375 16.675781-113.375 46.960937-29.867188 29.867187-46.488281 69.441406-46.941406 111.605469-17.730469 10.3125-29.683594 29.507812-29.683594 51.453125v50.425781c0 32.804688 26.6875 59.488281 59.492188 59.488281h29.660156c8.285156 0 15-6.714843 15-15v-139.40625c0-8.285156-6.714844-15-15-15zm-15 139.40625h-14.660156c-16.261719 0-29.492188-13.226562-29.492188-29.488281v-50.425781c0-16.261719 13.230469-29.492188 29.492188-29.492188h14.660156zm0 0"/><path d="m386.507812 219.113281h-29.660156c-8.285156 0-15 6.714844-15 15v154.980469c0 8.082031-6.578125 14.660156-14.660156 14.660156h-45.234375v.640625c-5.058594-9.125-14.78125-15.300781-25.953125-15.300781-16.382812 0-29.660156 13.277344-29.660156 29.660156 0 16.378906 13.277344 29.660156 29.660156 29.660156 11.171875 0 20.894531-6.179687 25.953125-15.300781v.640625h45.234375c24.625 0 44.660156-20.035156 44.660156-44.660156v-.574219h14.660156c32.804688 0 59.492188-26.6875 59.492188-59.492187v-50.421875c0-32.804688-26.6875-59.492188-59.492188-59.492188zm29.492188 109.917969c0 16.261719-13.230469 29.488281-29.492188 29.488281h-14.660156v-109.40625h14.660156c16.261719 0 29.492188 13.230469 29.492188 29.492188zm0 0"/></g></svg>