<svg height="480pt" viewBox="0 0 480 480" width="480pt" xmlns="http://www.w3.org/2000/svg" xmlns:xlink="http://www.w3.org/1999/xlink"><linearGradient id="a"><stop offset="0" stop-color="#fff200"/><stop offset="1" stop-color="#cd118c"/></linearGradient><linearGradient id="b" gradientUnits="userSpaceOnUse" x1="49.56" x2="417.56" xlink:href="#a" y1="406.048" y2="110.048"/><linearGradient id="c" gradientUnits="userSpaceOnUse" x1="-16.224" x2="351.776" xlink:href="#a" y1="324.264" y2="28.264"/><linearGradient id="d" gradientUnits="userSpaceOnUse" x1="19.92" x2="387.92" xlink:href="#a" y1="369.192" y2="73.192"/><linearGradient id="e" gradientUnits="userSpaceOnUse" x1="19.832" x2="387.832" xlink:href="#a" y1="369.088" y2="73.088"/><linearGradient id="f" gradientUnits="userSpaceOnUse" x1="43.272" x2="411.272" xlink:href="#a" y1="398.232" y2="102.232"/><path d="m388.152344 177.199219-28.152344-17.199219v-32c0-4.417969-3.582031-8-8-8h-57.351562l-50.480469-30.832031c-2.558594-1.5625-5.777344-1.5625-8.335938 0l-50.480469 30.832031h-57.351562c-4.417969 0-8 3.582031-8 8v32l-28.167969 17.183594c-2.375 1.449218-3.828125 4.03125-3.832031 6.816406v168c0 4.417969 3.582031 8 8 8h288c4.417969 0 8-3.582031 8-8v-168c-.011719-2.78125-1.46875-5.355469-3.847656-6.800781zm-268.152344 12.089843-8.648438-5.289062 8.648438-5.273438zm58.3125 54.398438-74.3125 86.710938v-132.132813zm13.824219 8.449219 43.695312 26.703125c2.558594 1.5625 5.777344 1.5625 8.335938 0l43.695312-26.703125 78.746094 91.863281h-253.21875zm167.863281-73.410157 8.648438 5.28125-8.648438 5.28125zm-58.3125 64.953126 74.3125-45.414063v132.132813zm-61.6875-138.304688 23.953125 14.625h-47.90625zm-104 30.625h208v63.0625l-104 63.5625-104-63.5625zm0 0" fill="url(#b)"/><path d="m160 152h56v16h-56zm0 0" fill="url(#c)"/><path d="m240 152h80v16h-80zm0 0" fill="url(#d)"/><path d="m160 184h160v16h-160zm0 0" fill="url(#e)"/><path d="m240 0c-132.546875 0-240 107.453125-240 240s107.453125 240 240 240 240-107.453125 240-240c-.148438-132.484375-107.515625-239.851562-240-240zm0 464c-123.710938 0-224-100.289062-224-224s100.289062-224 224-224 224 100.289062 224 224c-.140625 123.652344-100.347656 223.859375-224 224zm0 0" fill="url(#f)"/></svg>