<svg height="389pt" viewBox="0 -3 389.12 389" width="389pt" xmlns="http://www.w3.org/2000/svg"><path d="m20.480469 34.191406h348.160156c7.539063 0 13.652344-6.113281 13.652344-13.652344 0-7.539062-6.113281-13.652343-13.652344-13.652343h-348.160156c-7.539063 0-13.652344 6.113281-13.652344 13.652343 0 7.539063 6.113281 13.652344 13.652344 13.652344zm0 0" fill="#94c1ff"/><path d="m368.640625 41.019531h-348.160156c-11.292969 0-20.480469-9.1875-20.480469-20.480469 0-11.292968 9.1875-20.4804682 20.480469-20.4804682h348.160156c11.292969 0 20.480469 9.1875002 20.480469 20.4804682 0 11.292969-9.1875 20.480469-20.480469 20.480469zm-348.160156-27.304687c-3.761719 0-6.828125 3.058594-6.828125 6.824218 0 3.765626 3.066406 6.828126 6.828125 6.828126h348.160156c3.761719 0 6.824219-3.0625 6.824219-6.828126 0-3.765624-3.0625-6.824218-6.824219-6.824218zm0 0" fill="#0e65e5"/><path d="m20.480469 286.78125h348.160156c7.539063 0 13.652344-6.113281 13.652344-13.65625 0-7.539062-6.113281-13.652344-13.652344-13.652344h-348.160156c-7.539063 0-13.652344 6.113282-13.652344 13.652344 0 7.542969 6.113281 13.65625 13.652344 13.65625zm0 0" fill="#94c1ff"/><path d="m368.640625 293.605469h-348.160156c-11.292969 0-20.480469-9.1875-20.480469-20.480469s9.1875-20.476562 20.480469-20.476562h348.160156c11.292969 0 20.480469 9.183593 20.480469 20.476562s-9.1875 20.480469-20.480469 20.480469zm-348.160156-27.304688c-3.761719 0-6.828125 3.058594-6.828125 6.824219 0 3.769531 3.066406 6.828125 6.828125 6.828125h348.160156c3.761719 0 6.824219-3.058594 6.824219-6.828125 0-3.765625-3.0625-6.824219-6.824219-6.824219zm0 0" fill="#0e65e5"/><path d="m144.125 375.527344h100.871094c4.191406 0 7.59375-3.398438 7.59375-7.59375v-12.125c0-4.191406-3.398438-7.589844-7.59375-7.589844h-100.871094c-4.191406 0-7.589844 3.398438-7.589844 7.589844v12.125c0 4.195312 3.394532 7.59375 7.589844 7.59375zm0 0" fill="#94c1ff"/><path d="m244.996094 382.351562h-100.871094c-7.949219 0-14.417969-6.464843-14.417969-14.417968v-12.121094c0-7.953125 6.46875-14.417969 14.417969-14.417969h100.871094c7.949218 0 14.417968 6.464844 14.417968 14.417969v12.121094c0 7.953125-6.46875 14.417968-14.417968 14.417968zm-100.875-27.304687c-.417969 0-.761719.347656-.761719.765625v12.121094c0 .421875.34375.765625.761719.765625h100.875c.417968 0 .761718-.34375.761718-.765625v-12.121094c0-.417969-.34375-.765625-.761718-.765625zm0 0" fill="#0e65e5"/><path d="m27.308594 34.191406h334.503906v225.28125h-334.503906zm0 0" fill="#d7e9ff"/><g fill="#0e65e5"><path d="m361.8125 266.300781h-334.503906c-3.773438 0-6.828125-3.054687-6.828125-6.828125v-225.28125c0-3.773437 3.054687-6.824218 6.828125-6.824218h334.503906c3.769531 0 6.828125 3.050781 6.828125 6.824218v225.28125c0 3.773438-3.058594 6.828125-6.828125 6.828125zm-327.679688-13.652343h320.855469v-211.628907h-320.855469zm0 0"/><path d="m27.308594 245.820312h327.679687v13.652344h-327.679687zm0 0"/><path d="m354.988281 266.300781h-327.679687c-3.773438 0-6.828125-3.054687-6.828125-6.828125v-13.652344c0-3.773437 3.054687-6.828124 6.828125-6.828124h327.679687c3.769531 0 6.824219 3.054687 6.824219 6.828124v13.652344c0 3.773438-3.054688 6.828125-6.824219 6.828125zm-320.855469-13.652343h314.027344zm0 0"/></g><path d="m204.800781 348.21875h-20.480469v-61.4375h20.480469zm0 0" fill="#94c1ff"/><path d="m204.800781 355.046875h-20.480469c-3.769531 0-6.828124-3.054687-6.828124-6.828125v-61.4375c0-3.773438 3.058593-6.828125 6.828124-6.828125h20.480469c3.769531 0 6.824219 3.054687 6.824219 6.828125v61.4375c0 3.773438-3.054688 6.828125-6.824219 6.828125zm-13.652343-13.652344h6.824218v-47.789062h-6.824218zm0 0" fill="#0e65e5"/><path d="m286.71875 225.339844h-27.304688v-157.011719h27.304688zm0 0" fill="#5c9eff"/><path d="m286.71875 232.167969h-27.304688c-3.769531 0-6.828124-3.054688-6.828124-6.828125v-157.011719c0-3.773437 3.058593-6.828125 6.828124-6.828125h27.304688c3.769531 0 6.828125 3.054688 6.828125 6.828125v157.011719c0 3.773437-3.058594 6.828125-6.828125 6.828125zm-20.480469-13.65625h13.65625v-143.359375h-13.65625zm0 0" fill="#0e65e5"/><path d="m232.105469 225.339844h-27.304688v-136.53125h27.304688zm0 0" fill="#5c9eff"/><path d="m232.105469 232.167969h-27.304688c-3.769531 0-6.828125-3.054688-6.828125-6.828125v-136.53125c0-3.773438 3.058594-6.828125 6.828125-6.828125h27.304688c3.769531 0 6.828125 3.054687 6.828125 6.828125v136.53125c0 3.773437-3.058594 6.828125-6.828125 6.828125zm-20.480469-13.65625h13.65625v-122.878907h-13.65625zm0 0" fill="#0e65e5"/><path d="m177.492188 225.339844h-27.304688v-116.054688h27.304688zm0 0" fill="#5c9eff"/><path d="m177.492188 232.167969h-27.304688c-3.769531 0-6.828125-3.054688-6.828125-6.828125v-116.054688c0-3.773437 3.058594-6.824218 6.828125-6.824218h27.304688c3.769531 0 6.828124 3.050781 6.828124 6.824218v116.054688c0 3.773437-3.058593 6.828125-6.828124 6.828125zm-20.480469-13.65625h13.65625v-102.398438h-13.65625zm0 0" fill="#0e65e5"/><path d="m122.878906 225.339844h-27.304687v-88.746094h27.304687zm0 0" fill="#5c9eff"/><path d="m122.878906 232.167969h-27.304687c-3.769531 0-6.828125-3.054688-6.828125-6.828125v-88.746094c0-3.773438 3.058594-6.828125 6.828125-6.828125h27.304687c3.769532 0 6.828125 3.054687 6.828125 6.828125v88.746094c0 3.773437-3.058593 6.828125-6.828125 6.828125zm-20.480468-13.65625h13.65625v-75.089844h-13.65625zm0 0" fill="#0e65e5"/><path d="m334.507812 259.472656c-3.769531 0-6.828124-3.050781-6.828124-6.824218v-27.308594c0-3.773438 3.058593-6.828125 6.828124-6.828125 3.769532 0 6.824219 3.054687 6.824219 6.828125v27.308594c0 3.773437-3.054687 6.824218-6.824219 6.824218zm0 0" fill="#fff"/><path d="m348.160156 245.820312h-27.308594c-3.769531 0-6.824218-3.054687-6.824218-6.828124 0-3.773438 3.054687-6.824219 6.824218-6.824219h27.308594c3.769532 0 6.828125 3.050781 6.828125 6.824219 0 3.773437-3.058593 6.828124-6.828125 6.828124zm0 0" fill="#fff"/><path d="m109.226562 61.5h-61.441406c-3.769531 0-6.824218-3.054688-6.824218-6.828125s3.054687-6.824219 6.824218-6.824219h61.441406c3.769532 0 6.828126 3.050782 6.828126 6.824219s-3.058594 6.828125-6.828126 6.828125zm0 0" fill="#fff"/></svg>