<svg height="416pt" viewBox="-8 0 416 416.42667" width="416pt" xmlns="http://www.w3.org/2000/svg"><path d="m106.027344 360.105469c0 27.335937-22.160156 49.496093-49.492188 49.496093-27.335937 0-49.496094-22.160156-49.496094-49.496093 0-27.332031 22.160157-49.492188 49.496094-49.492188 27.332032 0 49.492188 22.160157 49.492188 49.492188zm0 0" fill="#d7e9ff"/><path d="m56.535156 416.425781c-31.054687 0-56.320312-25.265625-56.320312-56.320312 0-31.050781 25.265625-56.320313 56.320312-56.320313 31.050782 0 56.316406 25.269532 56.316406 56.320313 0 31.054687-25.265624 56.320312-56.316406 56.320312zm0-98.984375c-23.527344 0-42.667968 19.140625-42.667968 42.664063 0 23.527343 19.140624 42.667969 42.667968 42.667969 23.523438 0 42.664063-19.140626 42.664063-42.667969 0-23.523438-19.140625-42.664063-42.664063-42.664063zm0 0" fill="#0e65e5"/><path d="m392.746094 395.945312h-252.585938v-33.882812c0-23.296875 22.132813-42.183594 49.433594-42.183594l76.859375-12.679687 76.859375 12.679687c27.300781 0 49.433594 18.886719 49.433594 42.183594zm0 0" fill="#94c1ff"/><path d="m392.746094 402.773438h-252.585938c-3.769531 0-6.828125-3.058594-6.828125-6.828126v-33.882812c0-26.859375 24.925781-48.742188 55.6875-49.007812l76.324219-12.589844c.734375-.121094 1.488281-.121094 2.21875 0l76.324219 12.589844c30.761719.265624 55.6875 22.148437 55.6875 49.007812v33.882812c0 3.769532-3.058594 6.828126-6.828125 6.828126zm-245.757813-13.652344h238.933594v-27.058594c0-19.5-19.113281-35.359375-42.609375-35.359375-.375 0-.742188-.03125-1.109375-.089844l-75.75-12.492187-75.75 12.492187c-.367187.058594-.738281.089844-1.109375.089844-23.492188 0-42.605469 15.859375-42.605469 35.359375zm0 0" fill="#0e65e5"/><path d="m263.039062 279.894531h-252.585937v-33.886719c0-23.296874 22.132813-42.183593 49.433594-42.183593l76.859375-12.675781 76.859375 12.675781c27.300781 0 49.433593 18.886719 49.433593 42.183593zm0 0" fill="#5c9eff"/><g fill="#0e65e5"><path d="m263.039062 286.71875h-252.585937c-3.769531 0-6.828125-3.054688-6.828125-6.824219v-33.886719c0-26.855468 24.925781-48.742187 55.6875-49.007812l76.324219-12.589844c.734375-.121094 1.488281-.121094 2.222656 0l76.320313 12.589844c30.761718.265625 55.6875 22.148438 55.6875 49.007812v33.886719c0 3.769531-3.058594 6.824219-6.828126 6.824219zm-245.757812-13.652344h238.933594v-27.058594c0-19.496093-19.113282-35.355468-42.609375-35.355468-.371094 0-.742188-.03125-1.109375-.09375l-75.75-12.492188-75.75 12.492188c-.367188.0625-.738282.09375-1.109375.09375-23.492188 0-42.605469 15.859375-42.605469 35.355468zm0 0"/><path d="m10.453125 266.238281h252.585937v13.65625h-252.585937zm0 0"/><path d="m263.039062 286.71875h-252.585937c-3.769531 0-6.828125-3.054688-6.828125-6.824219v-13.65625c0-3.769531 3.058594-6.824219 6.828125-6.824219h252.585937c3.769532 0 6.828126 3.054688 6.828126 6.824219v13.65625c0 3.769531-3.058594 6.824219-6.828126 6.824219zm-245.757812-13.652344h238.933594zm0 0"/><path d="m140.160156 382.292969h252.585938v13.652343h-252.585938zm0 0"/><path d="m392.746094 402.773438h-252.585938c-3.769531 0-6.828125-3.058594-6.828125-6.828126v-13.652343c0-3.769531 3.058594-6.828125 6.828125-6.828125h252.585938c3.769531 0 6.828125 3.058594 6.828125 6.828125v13.652343c0 3.769532-3.058594 6.828126-6.828125 6.828126zm-245.757813-13.652344h238.933594zm0 0"/></g><path d="m167.464844 191.148438c-19.335938 8.59375-42.101563 8.59375-61.4375 0v-47.789063h61.4375zm0 0" fill="#d7e9ff"/><path d="m136.746094 204.375c-11.503906 0-23.003906-2.332031-33.492188-6.988281-2.464844-1.097657-4.054687-3.542969-4.054687-6.238281v-47.789063c0-3.769531 3.058593-6.824219 6.828125-6.824219h61.4375c3.773437 0 6.828125 3.054688 6.828125 6.824219v47.789063c0 2.695312-1.589844 5.140624-4.054688 6.238281-10.484375 4.65625-21.988281 6.988281-33.492187 6.988281zm30.71875-13.226562h.070312zm-54.613282-4.597657c15.242188 5.585938 32.546876 5.585938 47.789063 0v-36.363281h-47.789063zm0 0" fill="#0e65e5"/><path d="m173.382812 157.011719h-73.273437c-15.582031 0-28.214844-12.632813-28.214844-28.214844v-60.53125c0-33.929687 27.507813-61.4375 61.4375-61.4375h6.828125c33.933594 0 61.441406 27.507813 61.441406 61.4375v60.53125c0 15.582031-12.632812 28.214844-28.21875 28.214844zm0 0" fill="#d7e9ff"/><path d="m173.382812 163.839844h-73.273437c-19.324219 0-35.042969-15.71875-35.042969-35.042969v-60.53125c0-37.644531 30.621094-68.265625 68.265625-68.265625h6.828125c37.644532 0 68.265625 30.621094 68.265625 68.265625v60.53125c0 19.324219-15.71875 35.042969-35.042969 35.042969zm-40.050781-150.1875c-30.113281 0-54.613281 24.5-54.613281 54.613281v60.53125c0 11.792969 9.597656 21.390625 21.390625 21.390625h73.273437c11.792969 0 21.390626-9.597656 21.390626-21.390625v-60.53125c0-30.113281-24.5-54.613281-54.613282-54.613281zm0 0" fill="#0e65e5"/><path d="m297.171875 307.199219c-19.335937 8.59375-42.101563 8.59375-61.4375 0v-47.785157h61.4375zm0 0" fill="#d7e9ff"/><path d="m266.453125 320.425781c-11.503906 0-23.003906-2.328125-33.492187-6.984375-2.464844-1.097656-4.054688-3.542968-4.054688-6.242187v-47.785157c0-3.769531 3.058594-6.828124 6.828125-6.828124h61.4375c3.773437 0 6.828125 3.058593 6.828125 6.828124v47.785157c0 2.699219-1.589844 5.144531-4.054688 6.242187-10.484374 4.65625-21.988281 6.984375-33.492187 6.984375zm30.71875-13.226562h.066406zm-54.613281-4.59375c15.242187 5.585937 32.546875 5.585937 47.789062 0v-36.367188h-47.789062zm0 0" fill="#0e65e5"/><path d="m303.089844 273.066406h-73.273438c-15.582031 0-28.214844-12.632812-28.214844-28.214844v-60.53125c0-33.933593 27.507813-61.441406 61.4375-61.441406h6.828126c33.929687 0 61.441406 27.507813 61.441406 61.441406v60.53125c0 15.582032-12.632813 28.214844-28.21875 28.214844zm0 0" fill="#d7e9ff"/><path d="m303.089844 279.894531h-73.273438c-19.324218 0-35.042968-15.722656-35.042968-35.042969v-60.53125c0-37.644531 30.621093-68.265624 68.265624-68.265624h6.828126c37.644531 0 68.265624 30.621093 68.265624 68.265624v60.53125c0 19.320313-15.71875 35.042969-35.042968 35.042969zm-40.050782-150.1875c-30.113281 0-54.613281 24.5-54.613281 54.613281v60.53125c0 11.792969 9.597657 21.386719 21.390625 21.386719h73.273438c11.792968 0 21.390625-9.59375 21.390625-21.386719v-60.53125c0-30.113281-24.5-54.613281-54.613281-54.613281zm0 0" fill="#0e65e5"/><path d="m51.414062 389.121094c-1.800781 0-3.539062-.710938-4.828124-2l-13.652344-13.65625c-2.664063-2.664063-2.664063-6.984375 0-9.652344 2.664062-2.664062 6.988281-2.664062 9.652344 0l7.394531 7.390625 19.429687-33.308594c1.894532-3.253906 6.078125-4.351562 9.335938-2.457031 3.257812 1.898438 4.359375 6.078125 2.457031 9.335938l-23.894531 40.960937c-1.066406 1.828125-2.917969 3.058594-5.019532 3.328125-.292968.035156-.585937.058594-.875.058594zm0 0" fill="#0e65e5"/><path d="m324.480469 402.773438c-3.769531 0-6.828125-3.058594-6.828125-6.828126v-27.304687c0-3.769531 3.058594-6.828125 6.828125-6.828125s6.828125 3.058594 6.828125 6.828125v27.304687c0 3.769532-3.058594 6.828126-6.828125 6.828126zm0 0" fill="#fff"/><path d="m224.414062 177.488281c-.757812 0-1.523437-.125-2.277343-.390625-3.554688-1.257812-5.417969-5.15625-4.160157-8.710937 4.464844-12.632813 14.109376-22.871094 26.460938-28.09375 3.46875-1.464844 7.476562.160156 8.945312 3.632812 1.46875 3.46875-.15625 7.476563-3.632812 8.941407-8.820312 3.734374-15.710938 11.046874-18.902344 20.070312-.988281 2.800781-3.621094 4.550781-6.433594 4.550781zm0 0" fill="#fff"/><path d="m94.707031 61.4375c-.757812 0-1.523437-.128906-2.277343-.394531-3.554688-1.253907-5.417969-5.15625-4.160157-8.710938 4.464844-12.628906 14.109375-22.871093 26.460938-28.089843 3.46875-1.464844 7.480469.15625 8.945312 3.628906 1.46875 3.46875-.15625 7.476562-3.628906 8.945312-8.824219 3.730469-15.714844 11.046875-18.90625 20.070313-.988281 2.796875-3.621094 4.550781-6.433594 4.550781zm0 0" fill="#fff"/><path d="m338.132812 389.121094h-27.304687c-3.769531 0-6.828125-3.058594-6.828125-6.828125s3.058594-6.828125 6.828125-6.828125h27.304687c3.769532 0 6.828126 3.058594 6.828126 6.828125s-3.058594 6.828125-6.828126 6.828125zm0 0" fill="#fff"/></svg>